<svg xmlns="http://www.w3.org/2000/svg" version="1.0" width="2000.000000pt" height="482.000000pt" viewBox="0 0 2000.000000 482.000000" preserveAspectRatio="xMidYMid meet">

<g transform="translate(0.000000,482.000000) scale(0.100000,-0.100000)" fill="#3b3ef6" stroke="none">
<path d="M2289 4493 c-289 -292 -312 -321 -354 -453 -10 -30 -19 -56 -20 -58 -2 -2 -27 10 -57 27 -114 64 -169 71 -585 71 l-373 0 0 -377 c0 -421 4 -451 65 -572 l35 -70 -58 -16 c-127 -37 -161 -63 -455 -355 l-278 -275 278 -275 c294 -292 328 -318 455 -355 l58 -16 -35 -70 c-61 -121 -65 -151 -65 -571 l0 -378 373 0 c415 0 467 6 585 70 30 16 56 29 57 27 1 -1 10 -27 20 -57 42 -132 65 -161 354 -453 l276 -277 253 252 c275 275 334 348 371 466 12 39 24 72 25 72 2 0 24 -11 48 -25 25 -14 72 -35 104 -47 57 -21 75 -22 462 -26 l403 -3 -3 398 c-3 385 -4 400 -26 463 -13 36 -35 84 -49 108 -13 24 -23 45 -21 47 1 2 32 13 68 25 126 42 162 71 448 354 l273 271 -273 271 c-286 283 -322 312 -448 354 -36 12 -67 23 -68 25 -2 2 8 23 21 47 14 24 36 72 49 108 22 63 23 78 26 463 l3 398 -403 -3 c-387 -4 -405 -5 -462 -26 -32 -12 -79 -33 -104 -47 -25 -14 -48 -22 -52 -18 -3 5 -16 40 -28 79 -34 108 -95 184 -369 457 l-248 247 -276 -277z m682 -456 c84 -181 48 -346 -115 -515 l-85 -88 24 -49 c16 -31 25 -65 25 -97 l0 -48 37 0 c28 0 45 -8 70 -32 l32 -31 44 40 c27 25 60 44 90 51 l47 12 0 113 c0 178 31 267 127 361 61 60 149 103 238 116 39 5 170 10 293 10 l223 0 -3 -292 -3 -293 -28 -57 c-58 -119 -174 -212 -295 -237 -29 -6 -102 -11 -162 -11 l-110 0 0 -25 c0 -34 -25 -82 -63 -122 l-31 -33 26 -27 c18 -19 28 -42 30 -68 l3 -40 60 -5 c37 -3 75 -14 99 -28 l38 -23 92 89 c139 134 254 179 395 153 124 -23 159 -47 369 -255 l192 -190 -172 -174 c-95 -96 -199 -192 -231 -213 -81 -53 -185 -76 -280 -61 -102 16 -169 53 -274 155 l-92 89 -32 -23 c-22 -16 -52 -24 -98 -28 l-66 -6 -3 -40 c-2 -26 -12 -49 -30 -68 l-26 -27 31 -33 c38 -40 63 -88 63 -122 l0 -25 113 0 c182 0 287 -38 377 -137 27 -29 61 -79 77 -111 l28 -57 3 -294 3 -293 -273 4 c-254 4 -277 6 -330 27 -113 44 -209 137 -250 241 -17 44 -22 83 -26 192 -5 148 0 138 -65 152 -16 4 -48 25 -73 48 l-45 41 -32 -31 c-25 -24 -42 -32 -70 -32 l-37 0 0 -52 c0 -38 -7 -65 -25 -97 l-25 -44 86 -89 c163 -169 200 -333 114 -515 -26 -56 -58 -95 -217 -255 l-187 -188 -189 187 c-148 149 -194 201 -218 248 -41 84 -56 170 -42 250 18 106 53 168 154 270 l90 92 -24 37 c-16 23 -28 58 -32 96 l-7 60 -37 0 c-28 0 -44 7 -66 30 l-28 29 -44 -38 c-25 -23 -62 -43 -88 -50 l-45 -11 0 -99 c0 -176 -32 -271 -121 -366 -108 -115 -204 -138 -549 -133 l-215 3 -3 239 c-1 134 2 264 8 295 31 171 160 304 328 340 29 6 99 11 156 11 l104 0 11 46 c7 28 26 61 51 88 l40 43 -30 28 c-24 23 -30 37 -30 71 l0 42 -65 4 c-47 3 -73 10 -95 27 l-31 22 -94 -89 c-103 -99 -164 -134 -266 -153 -49 -9 -81 -9 -128 -1 -123 22 -158 46 -368 255 l-194 192 194 192 c210 209 245 233 368 255 47 8 79 8 128 -1 100 -19 165 -56 268 -154 l92 -88 31 22 c22 17 48 24 95 27 l65 4 0 42 c0 34 6 48 30 71 l30 28 -40 43 c-25 27 -44 60 -51 88 l-11 46 -104 0 c-57 0 -127 5 -156 11 -168 36 -297 169 -328 340 -6 31 -9 161 -8 295 l3 239 215 3 c333 4 425 -15 531 -114 99 -94 129 -170 138 -354 l6 -134 30 -6 c42 -9 86 -33 114 -64 l24 -25 34 29 c23 21 44 30 67 30 l34 0 7 60 c4 38 16 73 32 96 l24 37 -90 92 c-99 101 -134 161 -153 265 -15 76 -1 164 37 247 21 47 62 94 218 251 l192 193 187 -189 c160 -161 192 -198 219 -255z" fill="#3b3ef6"/>
<path d="M2404 4208 c-194 -197 -208 -221 -208 -353 0 -119 21 -162 136 -280 l87 -90 45 44 45 45 -79 82 c-65 68 -82 92 -95 138 -17 59 -13 109 13 161 18 36 201 225 217 225 21 0 195 -189 215 -233 25 -54 25 -130 1 -183 -11 -23 -51 -75 -90 -116 l-70 -75 45 -44 45 -44 83 85 c89 92 119 144 137 233 10 47 9 69 -5 124 -23 93 -55 138 -219 301 l-143 143 -160 -163z" fill="#3b3ef6"/>
<path d="M2488 4002 c-115 -119 -114 -183 7 -302 l65 -65 78 78 77 77 0 65 0 64 -75 76 c-41 41 -77 75 -81 75 -3 0 -35 -31 -71 -68z" fill="#3b3ef6"/>
<path d="M1182 3563 c3 -237 3 -238 31 -294 32 -67 109 -142 175 -172 39 -18 70 -22 180 -25 l132 -4 0 66 0 66 -107 0 c-120 0 -165 14 -216 66 -56 56 -62 76 -65 247 l-4 159 154 -4 c173 -4 210 -15 266 -83 40 -50 52 -96 52 -209 l0 -96 66 0 66 0 -4 128 c-3 110 -7 134 -30 183 -36 79 -89 133 -166 171 l-67 33 -233 3 -234 4 4 -239z" fill="#3b3ef6"/>
<path d="M3495 3790 c-69 -14 -116 -40 -170 -91 -81 -76 -98 -125 -103 -286 l-4 -133 66 0 66 0 0 108 c0 122 15 165 71 219 54 51 102 63 261 63 l140 0 -4 -152 c-4 -165 -11 -192 -67 -251 -47 -52 -77 -61 -206 -67 l-120 -5 -3 -64 -3 -63 138 4 c128 4 142 6 196 33 64 32 125 91 157 154 30 59 41 171 38 366 l-3 170 -205 2 c-113 0 -223 -3 -245 -7z" fill="#3b3ef6"/>
<path d="M1390 3488 c0 -85 4 -109 20 -136 36 -58 72 -72 188 -72 l102 0 0 98 c0 108 -14 150 -63 186 -24 18 -46 22 -138 24 l-109 4 0 -104z" fill="#3b3ef6"/>
<path d="M3515 3576 c-16 -7 -41 -26 -55 -41 -23 -25 -25 -35 -28 -141 l-4 -114 104 0 c84 0 109 4 135 20 56 34 67 62 72 182 l3 108 -98 0 c-60 -1 -111 -6 -129 -14z" fill="#3b3ef6"/>
<path d="M2512 3467 l-42 -43 45 -44 45 -44 45 44 45 44 -42 43 c-23 24 -45 43 -48 43 -3 0 -25 -19 -48 -43z" fill="#3b3ef6"/>
<path d="M2394 3335 c-7 -19 -14 -48 -14 -65 l0 -30 87 0 87 0 -64 65 c-35 36 -68 65 -73 65 -4 0 -15 -16 -23 -35z" fill="#3b3ef6"/>
<path d="M2640 3305 l-64 -65 82 0 82 0 0 48 c-1 40 -16 82 -31 82 -3 0 -34 -29 -69 -65z" fill="#3b3ef6"/>
<path d="M1780 3135 l0 -65 65 0 65 0 0 65 0 65 -65 0 -65 0 0 -65z" fill="#3b3ef6"/>
<path d="M1990 3103 l0 -97 60 59 c64 63 64 67 11 104 -14 10 -36 22 -48 25 -23 7 -23 6 -23 -91z" fill="#3b3ef6"/>
<path d="M3095 3186 c-16 -7 -41 -25 -55 -40 l-24 -27 62 -62 62 -62 0 103 c0 56 -3 102 -7 102 -5 -1 -21 -7 -38 -14z" fill="#3b3ef6"/>
<path d="M3220 3135 l0 -65 65 0 66 0 -3 63 -3 62 -62 3 -63 3 0 -66z" fill="#3b3ef6"/>
<path d="M2245 3140 c-19 -20 -18 -22 18 -58 l37 -37 0 58 c0 49 -3 57 -18 57 -11 0 -27 -9 -37 -20z" fill="#3b3ef6"/>
<path d="M2387 3153 c-4 -3 -7 -47 -7 -97 l0 -91 93 -93 92 -92 88 88 87 87 0 103 0 102 -173 0 c-96 0 -177 -3 -180 -7z" fill="#3b3ef6"/>
<path d="M2820 3098 l0 -63 42 42 c41 41 42 43 23 63 -10 11 -29 20 -42 20 -22 0 -23 -4 -23 -62z" fill="#3b3ef6"/>
<path d="M2040 2935 l-125 -125 70 -70 69 -70 123 0 123 0 0 133 0 133 -63 62 c-34 34 -65 62 -67 62 -3 0 -61 -56 -130 -125z" fill="#3b3ef6"/>
<path d="M2887 2992 l-67 -68 0 -127 0 -127 128 0 128 0 69 70 70 70 -125 125 c-69 69 -127 125 -130 125 -3 0 -36 -30 -73 -68z" fill="#3b3ef6"/>
<path d="M1780 2980 c0 -19 27 -64 52 -87 l24 -23 59 60 59 60 -97 0 c-61 0 -97 -4 -97 -10z" fill="#3b3ef6"/>
<path d="M3208 2928 l63 -63 34 37 c21 22 35 48 35 63 0 25 0 25 -97 25 l-98 0 63 -62z" fill="#3b3ef6"/>
<path d="M2382 2758 l3 -83 34 -3 c26 -3 40 3 62 24 l29 28 -57 58 c-32 32 -61 58 -66 58 -4 0 -7 -37 -5 -82z" fill="#3b3ef6"/>
<path d="M2677 2782 l-57 -58 28 -27 c19 -18 39 -27 60 -27 l32 0 0 85 c0 47 -1 85 -3 85 -1 0 -28 -26 -60 -58z" fill="#3b3ef6"/>
<path d="M1039 2777 c-78 -22 -129 -61 -282 -214 l-147 -149 158 -156 c190 -189 229 -212 357 -212 112 0 168 27 282 138 l88 85 -44 45 -44 45 -73 -69 c-92 -87 -136 -110 -210 -110 -82 0 -124 24 -237 138 l-97 98 103 102 c57 56 120 108 140 117 51 21 139 19 185 -4 21 -11 71 -51 112 -90 l74 -71 46 45 45 46 -88 85 c-56 55 -107 94 -141 110 -66 30 -163 39 -227 21z" fill="#3b3ef6"/>
<path d="M3919 2777 c-70 -20 -127 -59 -209 -141 l-74 -76 44 -45 44 -45 77 75 c42 41 93 82 113 90 52 22 139 19 188 -6 44 -23 228 -195 228 -214 0 -19 -182 -191 -227 -214 -51 -25 -137 -28 -189 -6 -20 8 -71 49 -113 90 l-77 75 -44 -45 -44 -45 79 -81 c109 -109 179 -144 290 -144 128 1 166 23 357 213 l159 157 -159 158 c-122 120 -172 163 -215 182 -67 31 -163 40 -228 22z" fill="#3b3ef6"/>
<path d="M1837 2732 c-10 -10 -17 -28 -17 -40 0 -20 5 -22 55 -22 30 0 55 4 55 8 0 9 -63 72 -71 72 -3 0 -13 -8 -22 -18z" fill="#3b3ef6"/>
<path d="M3225 2710 l-39 -40 57 0 c56 0 57 1 57 28 0 26 -15 52 -30 52 -3 0 -24 -18 -45 -40z" fill="#3b3ef6"/>
<path d="M2525 2630 c-36 -37 -43 -40 -92 -40 l-53 0 0 -53 c0 -48 -4 -57 -35 -87 l-35 -34 34 -36 c30 -30 35 -43 38 -90 l3 -55 55 -3 c47 -3 60 -8 90 -38 l36 -34 34 35 c30 31 39 35 87 35 l53 0 0 53 c0 49 3 56 40 92 l40 39 -40 41 c-35 36 -40 46 -40 88 l0 47 -47 0 c-42 0 -52 5 -88 40 l-41 40 -39 -40z" fill="#3b3ef6"/>
<path d="M1624 2575 c-18 -13 -16 -17 49 -82 l67 -68 0 83 0 82 -48 0 c-27 0 -57 -7 -68 -15z" fill="#3b3ef6"/>
<path d="M1822 2413 l3 -178 94 -3 95 -3 88 88 c48 48 88 92 88 98 0 6 -37 47 -83 93 l-82 82 -103 0 -102 0 2 -177z" fill="#3b3ef6"/>
<path d="M2195 2530 l59 -60 23 22 c16 15 23 33 23 60 l0 38 -82 0 -82 0 59 -60z" fill="#3b3ef6"/>
<path d="M2820 2557 c0 -23 8 -41 28 -60 l28 -27 59 60 59 60 -87 0 -87 0 0 -33z" fill="#3b3ef6"/>
<path d="M3017 2502 l-87 -87 93 -93 92 -92 93 0 92 0 0 180 0 180 -98 0 -97 0 -88 -88z" fill="#3b3ef6"/>
<path d="M3380 2510 c0 -44 4 -80 8 -80 4 0 37 30 72 66 62 62 64 66 46 80 -12 8 -42 14 -73 14 l-53 0 0 -80z" fill="#3b3ef6"/>
<path d="M1094 2570 c-40 -9 -75 -34 -142 -103 l-53 -54 75 -71 c123 -117 175 -117 293 0 l73 73 -73 73 c-78 78 -113 94 -173 82z" fill="#3b3ef6"/>
<path d="M3995 2574 c-5 -1 -22 -5 -38 -8 -30 -7 -167 -131 -167 -151 0 -7 31 -42 70 -78 117 -111 171 -110 287 5 l73 73 -73 73 c-68 68 -116 95 -152 86z" fill="#3b3ef6"/>
<path d="M1500 2455 l-44 -45 45 -45 45 -45 44 45 44 45 -45 45 -45 45 -44 -45z" fill="#3b3ef6"/>
<path d="M3530 2455 l-44 -45 45 -45 45 -45 44 45 44 45 -45 45 -45 45 -44 -45z" fill="#3b3ef6"/>
<path d="M1670 2335 c-61 -62 -64 -67 -46 -80 19 -15 103 -31 112 -22 3 2 4 41 2 86 l-3 82 -65 -66z" fill="#3b3ef6"/>
<path d="M3380 2321 c0 -44 5 -83 10 -86 15 -9 96 5 117 20 17 13 13 19 -47 79 -35 36 -68 66 -72 66 -4 0 -8 -36 -8 -79z" fill="#3b3ef6"/>
<path d="M2197 2302 c-31 -32 -57 -61 -57 -65 0 -4 36 -7 80 -7 l80 0 0 43 c0 32 -6 49 -23 65 l-23 22 -57 -58z" fill="#3b3ef6"/>
<path d="M2846 2331 c-21 -22 -27 -36 -24 -62 l3 -34 83 -3 c45 -2 82 1 82 5 0 5 -26 34 -58 66 l-58 57 -28 -29z" fill="#3b3ef6"/>
<path d="M1824 2146 c-9 -23 -1 -48 18 -60 14 -8 24 -4 53 24 19 19 35 38 35 42 0 15 -100 9 -106 -6z" fill="#3b3ef6"/>
<path d="M1982 2087 l-72 -72 123 -123 c67 -67 127 -122 132 -122 6 0 39 28 73 63 l62 63 0 132 0 132 -123 0 -123 0 -72 -73z" fill="#3b3ef6"/>
<path d="M2387 2153 c-10 -9 -9 -163 1 -163 4 0 34 26 66 59 l57 58 -31 27 c-29 24 -78 35 -93 19z" fill="#3b3ef6"/>
<path d="M2647 2132 l-27 -28 60 -59 60 -59 0 87 0 87 -33 0 c-23 0 -41 -8 -60 -28z" fill="#3b3ef6"/>
<path d="M2827 2153 c-4 -3 -7 -61 -7 -127 l0 -122 70 -69 70 -70 127 128 128 127 -70 70 -69 70 -122 0 c-66 0 -124 -3 -127 -7z" fill="#3b3ef6"/>
<path d="M3227 2118 c36 -35 44 -40 57 -29 9 8 16 26 16 42 0 29 -1 29 -57 29 l-58 0 42 -42z" fill="#3b3ef6"/>
<path d="M2472 1957 l-93 -93 3 -95 3 -94 178 -3 177 -2 0 102 0 103 -88 88 -87 87 -93 -93z" fill="#3b3ef6"/>
<path d="M1822 1926 c-30 -34 -48 -73 -39 -82 2 -3 46 -3 96 -2 l92 3 -59 58 -59 58 -31 -35z" fill="#3b3ef6"/>
<path d="M3205 1900 l-59 -60 97 0 c94 0 97 1 97 23 0 21 -53 97 -69 97 -3 0 -33 -27 -66 -60z" fill="#3b3ef6"/>
<path d="M3076 1771 l-60 -61 25 -26 c23 -26 87 -60 95 -51 3 2 3 48 2 101 l-3 97 -59 -60z" fill="#3b3ef6"/>
<path d="M1990 1727 c0 -53 2 -97 5 -97 18 0 73 31 92 52 l23 24 -60 59 -60 59 0 -97z" fill="#3b3ef6"/>
<path d="M2820 1732 c0 -58 1 -62 23 -62 13 0 32 9 42 20 19 20 18 22 -23 63 l-42 42 0 -63z" fill="#3b3ef6"/>
<path d="M2257 1742 c-36 -37 -37 -39 -19 -55 10 -9 28 -17 40 -17 20 0 22 5 22 55 0 30 -1 55 -3 55 -2 0 -20 -17 -40 -38z" fill="#3b3ef6"/>
<path d="M1430 1746 c-90 -24 -181 -103 -223 -194 -19 -43 -22 -67 -25 -285 l-4 -239 234 4 c227 3 234 4 289 29 79 37 133 90 171 167 30 61 33 73 36 194 l4 128 -66 0 -66 0 0 -96 c0 -125 -13 -168 -70 -225 -58 -58 -100 -69 -269 -69 l-131 0 0 138 c0 161 9 200 58 254 57 63 98 78 225 78 l107 0 0 65 0 65 -112 -1 c-62 0 -133 -6 -158 -13z" fill="#3b3ef6"/>
<path d="M1780 1695 l0 -65 65 0 65 0 0 65 0 65 -65 0 -65 0 0 -65z" fill="#3b3ef6"/>
<path d="M3220 1695 l0 -66 63 3 62 3 3 63 3 62 -66 0 -65 0 0 -65z" fill="#3b3ef6"/>
<path d="M3420 1696 l0 -66 110 0 c120 0 154 -9 208 -55 64 -54 76 -92 80 -263 l4 -154 -158 4 c-172 3 -192 9 -248 65 -52 51 -66 96 -66 216 l0 107 -66 0 -66 0 4 -132 c5 -165 22 -212 107 -291 92 -85 124 -92 391 -92 l225 0 3 170 c3 195 -8 307 -38 366 -32 63 -93 122 -157 154 -54 27 -68 29 -195 33 l-138 4 0 -66z" fill="#3b3ef6"/>
<path d="M2380 1560 c0 -34 25 -100 37 -100 5 0 38 29 73 65 l64 65 -87 0 -87 0 0 -30z" fill="#3b3ef6"/>
<path d="M2643 1523 c65 -65 69 -67 82 -49 8 11 15 41 15 68 l0 48 -82 0 -83 0 68 -67z" fill="#3b3ef6"/>
<path d="M1462 1530 c-58 -36 -72 -72 -72 -187 l0 -103 98 0 c108 0 150 14 186 63 18 24 22 46 24 138 l4 109 -104 0 c-85 0 -109 -4 -136 -20z" fill="#3b3ef6"/>
<path d="M3432 1436 c3 -106 5 -116 28 -142 40 -42 79 -54 186 -54 l96 0 -3 108 c-5 120 -16 148 -72 182 -26 16 -51 20 -135 20 l-104 0 4 -114z" fill="#3b3ef6"/>
<path d="M2512 1437 l-42 -43 45 -44 45 -44 45 44 45 44 -42 43 c-23 24 -45 43 -48 43 -3 0 -25 -19 -48 -43z" fill="#3b3ef6"/>
<path d="M2332 1256 c-110 -112 -137 -170 -136 -286 0 -126 17 -153 208 -348 l161 -163 161 163 c137 139 164 171 181 218 33 86 37 139 19 211 -21 81 -57 136 -146 224 l-70 70 -46 -46 -45 -46 72 -74 c40 -41 80 -92 90 -114 24 -52 24 -129 -1 -182 -20 -45 -194 -233 -215 -233 -7 0 -57 47 -113 104 -85 87 -103 111 -116 156 -20 66 -20 64 0 129 12 42 31 69 94 135 l79 82 -42 42 c-24 23 -45 42 -48 42 -3 0 -42 -38 -87 -84z" fill="#3b3ef6"/>
<path d="M2487 1120 c-114 -120 -112 -181 8 -300 l65 -65 78 78 77 77 0 65 0 64 -75 76 c-41 41 -77 75 -81 75 -4 0 -36 -31 -72 -70z" fill="#3b3ef6"/>
<path d="M7190 2060 l0 -890 140 0 140 0 0 890 0 890 -140 0 -140 0 0 -890z" fill="#3b3ef6"/>
<path d="M5590 2034 l0 -865 468 3 c404 4 475 6 527 21 154 44 266 131 326 253 30 61 34 79 37 170 8 213 -66 336 -243 400 -36 13 -75 24 -85 24 -36 0 -21 27 23 40 162 48 254 165 264 335 12 192 -73 340 -247 427 -108 54 -153 58 -632 58 l-438 0 0 -866z m886 598 c95 -43 137 -111 137 -223 0 -115 -63 -194 -179 -224 -49 -12 -110 -15 -305 -13 l-244 3 -3 230 c-1 126 0 236 3 243 4 11 55 13 272 10 255 -3 270 -4 319 -26z m29 -730 c111 -51 162 -138 152 -259 -7 -87 -43 -145 -117 -187 l-55 -31 -302 -3 -303 -3 0 249 c0 137 3 252 7 256 5 4 134 6 288 4 267 -3 282 -4 330 -26z" fill="#3b3ef6"/>
<path d="M11250 2035 l0 -865 145 0 145 0 0 582 c0 320 4 578 8 572 5 -5 106 -234 225 -509 119 -275 230 -533 248 -573 l32 -73 111 3 111 3 250 577 250 578 3 -580 2 -580 145 0 145 0 0 865 0 865 -163 0 -162 0 -290 -669 c-160 -368 -292 -667 -294 -665 -3 3 -134 303 -292 667 l-288 662 -165 3 -166 2 0 -865z" fill="#3b3ef6"/>
<path d="M15860 2580 l0 -169 -87 -3 -88 -3 0 -120 0 -120 88 -3 87 -3 0 -315 c0 -366 7 -417 71 -513 69 -104 164 -153 311 -159 54 -2 118 -1 143 2 l45 7 0 117 0 117 -87 0 c-96 0 -133 13 -165 56 -33 44 -38 94 -38 397 l0 292 145 0 145 0 0 125 0 125 -145 0 -145 0 0 170 0 170 -140 0 -140 0 0 -170z" fill="#3b3ef6"/>
<path d="M8225 2419 c-254 -24 -456 -199 -522 -449 -23 -88 -22 -281 1 -370 57 -213 215 -370 427 -425 83 -22 262 -22 344 0 266 69 442 285 461 564 30 424 -281 722 -711 680z m199 -265 c41 -15 98 -54 129 -89 60 -68 93 -191 84 -313 -10 -151 -74 -255 -192 -313 -56 -27 -76 -32 -142 -32 -91 0 -148 20 -210 76 -140 127 -150 438 -19 594 31 36 112 81 168 93 50 10 127 3 182 -16z" fill="#3b3ef6"/>
<path d="M9600 2423 c-196 -16 -357 -125 -439 -297 -52 -107 -71 -199 -71 -336 0 -137 19 -229 71 -336 67 -141 200 -250 349 -284 82 -20 223 -15 300 9 69 21 146 65 193 110 l29 26 -7 -40 c-35 -200 -234 -332 -532 -352 -108 -7 -102 5 -74 -143 l17 -95 115 2 c226 4 440 85 574 217 81 80 115 133 154 239 l26 72 3 598 3 597 -125 0 -124 0 -6 -27 c-2 -16 -8 -49 -11 -76 l-6 -48 -47 42 c-99 87 -248 134 -392 122z m222 -273 c68 -25 138 -95 175 -175 26 -55 28 -69 28 -180 0 -143 -20 -205 -91 -284 -63 -71 -129 -101 -219 -101 -91 0 -152 21 -209 71 -90 80 -132 218 -114 381 14 134 98 255 201 292 62 21 166 20 229 -4z" fill="#3b3ef6"/>
<path d="M13805 2420 c-140 -13 -248 -61 -335 -149 -54 -54 -116 -159 -107 -184 2 -6 54 -30 117 -53 l113 -42 26 52 c29 57 91 110 149 126 47 13 157 13 201 0 46 -13 99 -65 111 -110 10 -35 14 -130 6 -130 -44 0 -397 -44 -441 -55 -197 -50 -320 -175 -332 -339 -16 -215 127 -358 374 -373 160 -10 254 19 348 108 l52 49 12 -75 12 -75 130 0 129 0 0 423 c0 232 -4 448 -10 481 -21 128 -101 241 -210 296 -85 43 -216 62 -345 50z m281 -742 c-3 -18 -8 -51 -11 -73 -9 -53 -36 -103 -77 -141 -46 -44 -85 -61 -161 -74 -91 -14 -154 0 -198 46 -30 31 -34 41 -34 89 0 63 24 96 93 127 42 19 263 55 350 57 l43 1 -5 -32z" fill="#3b3ef6"/>
<path d="M14983 2419 c-173 -20 -320 -112 -374 -235 -29 -64 -35 -158 -15 -227 35 -122 147 -193 418 -267 86 -24 174 -53 195 -64 73 -42 81 -119 18 -175 -45 -39 -103 -54 -191 -49 -99 7 -167 45 -203 114 -14 27 -26 50 -27 51 0 2 -55 -15 -121 -38 -138 -46 -134 -38 -79 -148 75 -147 229 -222 456 -222 174 0 290 38 387 125 116 105 148 268 79 405 -51 100 -144 152 -416 231 -201 59 -230 77 -230 143 0 30 7 45 30 67 82 76 290 61 359 -26 l22 -27 117 37 c64 21 118 39 120 41 9 9 -45 93 -88 136 -103 103 -269 149 -457 128z" fill="#3b3ef6"/>
<path d="M17076 2419 c-242 -26 -443 -207 -501 -450 -19 -81 -19 -253 0 -342 42 -199 195 -375 379 -437 234 -77 506 -20 666 140 37 37 100 125 100 140 0 3 -54 24 -121 45 -118 39 -121 39 -132 20 -55 -101 -244 -160 -383 -120 -111 32 -198 125 -221 236 l-5 29 440 0 440 0 7 75 c12 125 -13 261 -66 367 -16 32 -58 89 -94 127 -127 134 -301 192 -509 170z m212 -270 c87 -43 152 -135 152 -215 l0 -24 -290 0 c-159 0 -290 2 -290 5 0 2 7 26 16 52 60 179 250 263 412 182z" fill="#3b3ef6"/>
<path d="M19185 2419 c-230 -27 -385 -159 -402 -344 -13 -137 53 -240 198 -307 41 -20 144 -54 229 -78 219 -60 247 -76 257 -149 5 -37 2 -44 -34 -80 -48 -48 -104 -65 -199 -59 -89 6 -159 41 -197 101 -15 22 -27 47 -27 55 0 8 -6 12 -12 10 -7 -3 -63 -22 -125 -42 -127 -42 -124 -36 -69 -145 74 -145 234 -224 456 -224 227 0 395 85 470 237 55 112 37 261 -42 351 -55 62 -166 114 -378 175 -201 59 -230 77 -230 143 0 30 7 45 30 67 82 76 290 61 359 -26 l22 -27 117 37 c64 21 118 39 120 41 2 2 -9 27 -24 55 -83 153 -288 235 -519 209z" fill="#3b3ef6"/>
<path d="M18477 2409 c-59 -14 -136 -57 -187 -105 -54 -51 -54 -51 -66 49 l-6 58 -127 -3 -126 -3 0 -615 0 -615 137 -3 136 -3 4 363 c4 349 5 365 27 420 29 75 98 150 168 184 48 24 68 28 140 27 l83 -1 0 123 0 123 -31 6 c-42 8 -105 6 -152 -5z" fill="#3b3ef6"/>
</g>
</svg>